<svg width="50" height="50" viewBox="0 0 50 50" fill="none" xmlns="http://www.w3.org/2000/svg">
<path d="M45.7709 38.1875C45.7709 38.9375 45.6042 39.7084 45.2501 40.4584C44.8959 41.2084 44.4376 41.9167 43.8334 42.5834C42.8126 43.7084 41.6876 44.5209 40.4167 45.0417C39.1667 45.5625 37.8126 45.8334 36.3542 45.8334C34.2292 45.8334 31.9584 45.3334 29.5626 44.3125C27.1667 43.2917 24.7709 41.9167 22.3959 40.1875C20.0001 38.4375 17.7292 36.5 15.5626 34.3542C13.4167 32.1875 11.4792 29.9167 9.75008 27.5417C8.04175 25.1667 6.66675 22.7917 5.66675 20.4375C4.66675 18.0625 4.16675 15.7917 4.16675 13.625C4.16675 12.2084 4.41675 10.8542 4.91675 9.60419C5.41675 8.33335 6.20841 7.16669 7.31258 6.12502C8.64591 4.81252 10.1042 4.16669 11.6459 4.16669C12.2292 4.16669 12.8126 4.29169 13.3334 4.54169C13.8751 4.79169 14.3542 5.16669 14.7292 5.70835L19.5626 12.5209C19.9376 13.0417 20.2084 13.5209 20.3959 13.9792C20.5834 14.4167 20.6876 14.8542 20.6876 15.25C20.6876 15.75 20.5417 16.25 20.2501 16.7292C19.9792 17.2084 19.5834 17.7084 19.0834 18.2084L17.5001 19.8542C17.2709 20.0834 17.1667 20.3542 17.1667 20.6875C17.1667 20.8542 17.1876 21 17.2292 21.1667C17.2917 21.3334 17.3542 21.4584 17.3959 21.5834C17.7709 22.2709 18.4167 23.1667 19.3334 24.25C20.2709 25.3334 21.2709 26.4375 22.3542 27.5417C23.4792 28.6459 24.5626 29.6667 25.6667 30.6042C26.7501 31.5209 27.6459 32.1459 28.3542 32.5209C28.4584 32.5625 28.5834 32.625 28.7292 32.6875C28.8959 32.75 29.0626 32.7709 29.2501 32.7709C29.6042 32.7709 29.8751 32.6459 30.1042 32.4167L31.6876 30.8542C32.2084 30.3334 32.7084 29.9375 33.1876 29.6875C33.6667 29.3959 34.1459 29.25 34.6667 29.25C35.0626 29.25 35.4792 29.3334 35.9376 29.5209C36.3959 29.7084 36.8751 29.9792 37.3959 30.3334L44.2917 35.2292C44.8334 35.6042 45.2084 36.0417 45.4376 36.5625C45.6459 37.0834 45.7709 37.6042 45.7709 38.1875Z" stroke="white" stroke-width="3.125" stroke-miterlimit="10"/>
<path d="M38.5417 18.75C38.5417 17.5 37.5625 15.5834 36.1042 14.0209C34.7708 12.5834 33 11.4584 31.25 11.4584" stroke="white" stroke-width="3.125" stroke-linecap="round" stroke-linejoin="round"/>
<path d="M45.8333 18.75C45.8333 10.6875 39.3125 4.16669 31.25 4.16669" stroke="white" stroke-width="3.125" stroke-linecap="round" stroke-linejoin="round"/>
</svg>
