<svg width="40" height="40" viewBox="0 0 40 40" fill="none" xmlns="http://www.w3.org/2000/svg">
<g clip-path="url(#clip0_109_937)">
<path fill-rule="evenodd" clip-rule="evenodd" d="M19.936 0.606523C23.5417 0.647669 26.7991 1.53387 29.7083 3.26512C32.5827 4.96176 34.9738 7.36746 36.6528 10.2521C38.3735 13.1788 39.2544 16.4559 39.2954 20.0836C39.1932 25.0472 37.6277 29.2865 34.5988 32.8016C31.5699 36.3168 27.6906 38.4914 23.6748 39.3251V25.409H27.4714L28.33 19.9403H22.581V16.3584C22.5491 15.6159 22.784 14.8864 23.2431 14.3019C23.7028 13.7158 24.5124 13.4078 25.672 13.3778H29.1435V8.5873C29.0937 8.57126 28.621 8.50788 27.7256 8.39715C26.71 8.27831 25.6887 8.21483 24.6662 8.20699C22.352 8.21767 20.5217 8.87048 19.1755 10.1654C17.8291 11.46 17.1414 13.3329 17.1123 15.7842V19.9403H12.7373V25.409H17.1123V39.3252C12.1814 38.4916 8.30213 36.3169 5.27322 32.8018C2.24432 29.2866 0.678848 25.0471 0.57666 20.0836C0.617546 16.4558 1.49838 13.1786 3.21916 10.2521C4.89826 7.36743 7.28935 4.96171 10.1638 3.26504C13.0728 1.53415 16.3302 0.648034 19.936 0.606523Z" fill="white"/>
</g>
<defs>
<clipPath id="clip0_109_937">
<rect width="40" height="40" fill="white"/>
</clipPath>
</defs>
</svg>
