<svg width="50" height="50" viewBox="0 0 50 50" fill="none" xmlns="http://www.w3.org/2000/svg">
<path d="M18.7915 5.9166L7.56234 14.6666C5.68734 16.1249 4.1665 19.2291 4.1665 21.5833V37.0208C4.1665 41.8541 8.104 45.8124 12.9373 45.8124H37.0623C41.8957 45.8124 45.8332 41.8541 45.8332 37.0416V21.8749C45.8332 19.3541 44.1457 16.1249 42.0832 14.6874L29.2082 5.6666C26.2915 3.62493 21.604 3.7291 18.7915 5.9166Z" stroke="white" stroke-width="3.125" stroke-linecap="round" stroke-linejoin="round"/>
<path d="M21.875 37.5H28.125C31.5625 37.5 34.375 34.6875 34.375 31.25V25C34.375 21.5625 31.5625 18.75 28.125 18.75H21.875C18.4375 18.75 15.625 21.5625 15.625 25V31.25C15.625 34.6875 18.4375 37.5 21.875 37.5Z" stroke="white" stroke-width="3.125" stroke-linecap="round" stroke-linejoin="round"/>
<path d="M25 18.75V37.5" stroke="white" stroke-width="3.125" stroke-linecap="round" stroke-linejoin="round"/>
<path d="M15.625 28.125H34.375" stroke="white" stroke-width="3.125" stroke-linecap="round" stroke-linejoin="round"/>
</svg>
