<svg width="40" height="40" viewBox="0 0 40 40" fill="none" xmlns="http://www.w3.org/2000/svg">
<g clip-path="url(#clip0_109_943)">
<path d="M20 0.46875C9.2132 0.46875 0.46875 9.2132 0.46875 20C0.46875 30.7868 9.2132 39.5312 20 39.5312C30.7868 39.5312 39.5312 30.7868 39.5312 20C39.5312 9.2132 30.7868 0.46875 20 0.46875ZM13.5118 31.6484H8.51609V16.0332H13.5118V31.6484ZM11.014 13.7778C10.4774 13.7778 9.95278 13.6187 9.50658 13.3206C9.06038 13.0225 8.71261 12.5987 8.50725 12.1029C8.30188 11.6072 8.24815 11.0616 8.35283 10.5353C8.45752 10.009 8.71593 9.52554 9.09538 9.14608C9.47484 8.76663 9.95829 8.50822 10.4846 8.40354C11.0109 8.29885 11.5565 8.35259 12.0522 8.55795C12.548 8.76332 12.9718 9.11109 13.2699 9.55728C13.568 10.0035 13.7271 10.5281 13.7271 11.0647C13.7271 11.7843 13.4413 12.4743 12.9325 12.9832C12.4236 13.492 11.7336 13.7778 11.014 13.7778ZM31.693 31.6484H26.7909V24.1206C26.7909 22.3231 26.7539 20.025 24.238 20.025C21.6852 20.025 21.2967 21.9733 21.2967 23.988V31.6484H16.3945V16.1827H21.1055V18.2938C22.3008 17.05 24.0252 15.7966 25.8164 15.7966C30.7864 15.7966 31.6992 18.9997 31.6992 23.1559L31.693 31.6484Z" fill="white"/>
</g>
<defs>
<clipPath id="clip0_109_943">
<rect width="40" height="40" fill="white"/>
</clipPath>
</defs>
</svg>
