<svg width="50" height="50" viewBox="0 0 50 50" fill="none" xmlns="http://www.w3.org/2000/svg">
<path d="M50 50H0V0H50V50ZM3.40321 46.5968H46.5968V3.40321H3.40321V46.5968Z" fill="white"/>
<path d="M6.23755 40.5181H7.74177C7.97744 40.515 8.16944 40.5842 8.31833 40.7254C8.46694 40.8666 8.53982 41.066 8.53698 41.3235C8.53386 41.581 8.42836 41.8139 8.21992 42.0223C8.01147 42.2308 7.93376 42.3697 7.98651 42.4392L8.7114 43.6919L7.84159 43.6873L7.20718 42.5614L7.16634 42.4392L7.15954 42.4301L7.155 42.2875L7.16634 42.2262C7.17542 42.1962 7.19187 42.1621 7.21626 42.1244L7.78941 41.4877C7.84528 41.4273 7.85804 41.3672 7.82798 41.3076C7.79764 41.2481 7.74347 41.2197 7.66491 41.2226H6.95364L6.9491 43.6851H6.2401L6.23755 40.5181Z" fill="white"/>
<path d="M10.6665 43.6852H9.48166C8.9862 43.717 8.74826 43.5108 8.76811 43.0667V41.0684C8.79676 40.6892 9.0347 40.5057 9.48166 40.5179H10.6665V41.1997H9.50207V41.7819H10.4422V42.466H9.50207V43.0051H10.6665V43.6852Z" fill="white"/>
<path d="M10.8478 43.6943V40.5182H11.5749L12.9002 42.6387V40.5182H13.6115V43.6943H12.848L11.5454 41.6214V43.6943H10.8478Z" fill="white"/>
<path d="M13.7927 42.106C13.7927 41.7798 13.8418 41.507 13.9399 41.2881C14.0125 41.125 14.1121 40.9789 14.2388 40.8496C14.3656 40.7206 14.5046 40.625 14.6557 40.5629C14.8582 40.4784 15.0908 40.4361 15.3534 40.4361C15.829 40.4361 16.2093 40.5822 16.494 40.8746C16.7788 41.1667 16.9211 41.5719 16.9211 42.0901C16.9211 42.6051 16.7799 43.0075 16.4974 43.2977C16.215 43.5875 15.8366 43.7327 15.3625 43.7327C14.8806 43.7327 14.4986 43.5886 14.2161 43.2999C13.934 43.0115 13.7927 42.6136 13.7927 42.106ZM14.5088 42.1173C14.5088 42.4511 14.5874 42.7052 14.7445 42.8796C14.9016 43.054 15.101 43.1414 15.3426 43.1414C15.5857 43.1414 15.7847 43.0549 15.9396 42.8819C16.0944 42.7089 16.1719 42.4511 16.1719 42.1082C16.1719 41.7685 16.0964 41.5147 15.9453 41.347C15.7941 41.1794 15.5933 41.0955 15.3426 41.0955C15.0919 41.0955 14.8903 41.18 14.7377 41.3493C14.5851 41.5186 14.5088 41.7744 14.5088 42.1173Z" fill="white"/>
<path d="M20.0228 40.5249C19.9638 40.7333 19.8739 41.0345 19.7531 41.4287C19.6005 41.9256 19.4669 42.3507 19.3521 42.7041C19.2086 43.1451 19.1187 43.3927 19.0824 43.4471C19.0234 43.5333 18.9346 43.6005 18.8161 43.6488C18.6975 43.697 18.5719 43.7214 18.4389 43.7214C18.3045 43.7214 18.1794 43.6978 18.064 43.651C17.9485 43.6042 17.8603 43.5362 17.7999 43.4471C17.7622 43.3958 17.6715 43.1488 17.528 42.7063C17.4239 42.3847 17.2909 41.9596 17.1292 41.431C17.0371 41.129 16.9457 40.8269 16.855 40.5249H17.5844L18.3842 42.9783C18.3887 43.0055 18.406 43.0192 18.4363 43.0192C18.4681 43.0192 18.4899 43.0055 18.5021 42.9783L19.286 40.5249H20.0228Z" fill="white"/>
<path d="M23.2035 43.6896H22.5013L22.2497 42.9942H21.1647L20.9108 43.6896H20.2041L21.2486 40.851C21.3076 40.7348 21.3742 40.6505 21.4491 40.5983C21.524 40.5462 21.6096 40.5201 21.7063 40.5201C21.8045 40.5201 21.891 40.5476 21.9658 40.6029C22.0407 40.6579 22.1073 40.7407 22.1663 40.851L23.2035 43.6896ZM22.0481 42.4525L21.7106 41.5169L21.3663 42.4525H22.0481Z" fill="white"/>
<path d="M24.053 43.692V41.2045H23.3849V40.5182H25.4237V41.2045H24.7915V43.692H24.053Z" fill="white"/>
<path d="M25.605 43.7009V40.5249H26.3231V43.7009H25.605Z" fill="white"/>
<path d="M26.5043 42.106C26.5043 41.7798 26.5533 41.507 26.6515 41.2881C26.7241 41.125 26.8236 40.9789 26.9504 40.8496C27.0771 40.7206 27.2161 40.625 27.3673 40.5629C27.5698 40.4784 27.8023 40.4361 28.0649 40.4361C28.5405 40.4361 28.9208 40.5822 29.2056 40.8746C29.4903 41.1667 29.6327 41.5719 29.6327 42.0901C29.6327 42.6051 29.4914 43.0075 29.209 43.2977C28.9265 43.5875 28.5482 43.7327 28.074 43.7327C27.5922 43.7327 27.2102 43.5886 26.9277 43.2999C26.6455 43.0115 26.5043 42.6136 26.5043 42.106ZM27.2201 42.1173C27.2201 42.4511 27.2986 42.7052 27.4558 42.8796C27.6129 43.054 27.8122 43.1414 28.0539 43.1414C28.2969 43.1414 28.496 43.0549 28.6508 42.8819C28.8057 42.7089 28.8831 42.4511 28.8831 42.1082C28.8831 41.7685 28.8077 41.5147 28.6565 41.347C28.5054 41.1794 28.3046 41.0955 28.0539 41.0955C27.8032 41.0955 27.6015 41.18 27.4489 41.3493C27.2964 41.5186 27.2201 41.7744 27.2201 42.1173Z" fill="white"/>
<path d="M29.8142 43.6943V40.5182H30.5414L31.8666 42.6387V40.5182H32.5779V43.6943H31.8144L30.5119 41.6214V43.6943H29.8142Z" fill="white"/>
<path d="M33.8807 40.5226H33.9961C34.0157 40.5272 34.0392 40.5286 34.0664 40.5272H35.1265C35.122 40.5135 35.1183 40.515 35.1152 40.5317L35.1084 41.1843L33.9371 41.182C33.8931 41.1834 33.8554 41.1865 33.8239 41.1911L33.7967 41.1979L33.7445 41.207C33.7445 41.2055 33.7454 41.2047 33.7468 41.2047C33.6697 41.226 33.6047 41.271 33.552 41.3405C33.5262 41.3995 33.5293 41.4599 33.561 41.5217C33.5761 41.5399 33.5965 41.5566 33.6223 41.5717L33.6609 41.5853L33.6858 41.5944L33.7425 41.617L33.7584 41.6216L33.9601 41.6783L33.9759 41.6851L33.9941 41.6874L34.0054 41.6896C34.0086 41.6942 34.0176 41.6973 34.0327 41.6987C34.0477 41.7001 34.0562 41.701 34.0576 41.701C34.0698 41.7055 34.0885 41.7109 34.1143 41.7169L34.128 41.7214L34.1438 41.7237L34.1983 41.7373C34.2133 41.7404 34.2323 41.7455 34.255 41.7532L34.2686 41.7577L34.3072 41.7645L34.3208 41.7691C34.348 41.775 34.3713 41.7818 34.3911 41.7895L34.3979 41.7917C34.4039 41.7963 34.4138 41.7985 34.4274 41.7985L34.4479 41.8031L34.4751 41.8122L34.6064 41.8575L34.6177 41.8598L34.6881 41.8893C34.7062 41.9015 34.7303 41.9143 34.7607 41.9279L34.7652 41.9324L34.8129 41.9574L34.8401 41.971L34.8832 42.005L34.8945 42.0095C34.905 42.0217 34.9209 42.0345 34.9422 42.0481L34.9603 42.0663L34.9762 42.0776L35.0352 42.1366C35.0443 42.1457 35.0525 42.1562 35.0602 42.1684C35.0661 42.176 35.0738 42.1851 35.0828 42.1956C35.0905 42.2092 35.1001 42.2237 35.1123 42.2387L35.1146 42.2478C35.1282 42.2628 35.1381 42.2795 35.1441 42.2977L35.1532 42.3068L35.1623 42.3294C35.1699 42.3476 35.1773 42.3626 35.1849 42.3748L35.2031 42.4315V42.4383C35.2907 42.7435 35.2303 43.0333 35.0219 43.3082L34.8974 43.4304L34.8792 43.4417L34.8701 43.4508L34.7748 43.5166C34.7672 43.5211 34.7499 43.5311 34.7227 43.5461C34.7136 43.5475 34.7022 43.5529 34.6886 43.562L34.512 43.63L34.4666 43.6414C34.468 43.64 34.472 43.6391 34.4779 43.6391L34.4371 43.6527L34.4212 43.655L34.4031 43.6595H34.3894L34.3713 43.6663L34.3599 43.6686L34.3327 43.6731L34.3191 43.6754L34.2896 43.68L34.2783 43.6822C34.2587 43.6822 34.2374 43.6845 34.2147 43.689H34.1716L34.1603 43.6936L32.9618 43.6958H32.9686V43.0455H34.2825C34.4379 43.0155 34.5301 42.9324 34.559 42.7963C34.5831 42.6876 34.5423 42.6037 34.4368 42.5447C34.4186 42.5342 34.3951 42.5234 34.3665 42.5129L34.3415 42.5016L34.2871 42.4834L34.2644 42.4721H34.2553L34.2417 42.4653H34.2303C34.2227 42.4622 34.2113 42.4593 34.1963 42.4562C34.1796 42.4486 34.1592 42.4435 34.1351 42.4403L34.1305 42.4358L34.0897 42.4245H34.0806L33.9989 42.404C33.9822 42.3995 33.9731 42.3972 33.9717 42.3972C33.955 42.3896 33.9309 42.3836 33.8991 42.3791L33.8764 42.3745C33.8628 42.3686 33.85 42.3646 33.8378 42.3632C33.8333 42.3587 33.8242 42.3564 33.8106 42.3564C33.8001 42.3533 33.7871 42.351 33.772 42.3496L33.7403 42.336H33.7335C33.7244 42.3314 33.7116 42.3283 33.6949 42.3269L33.6836 42.3224L33.6631 42.3178L33.6495 42.3133L33.5769 42.2906L33.5633 42.2883L33.5179 42.2702L33.4862 42.2588C33.4726 42.2574 33.4558 42.2512 33.4363 42.2407L33.4068 42.2293L33.3319 42.193C33.3214 42.1899 33.3069 42.1817 33.2888 42.1681L33.2752 42.1658L33.2548 42.1522L33.2253 42.1318L33.2116 42.1227L33.1935 42.1114L33.1867 42.1045L33.1663 42.0909C33.1572 42.0819 33.1436 42.0697 33.1254 42.0546L33.0279 41.9551L33.0143 41.9347L33.0006 41.9188C32.9885 41.9038 32.9765 41.8848 32.9643 41.8621L32.9575 41.8485L32.9462 41.828L32.9258 41.7917C32.814 41.532 32.833 41.2662 32.9825 40.9943C33.1736 40.7007 33.4728 40.5436 33.8807 40.5226Z" fill="white"/>
<path d="M36.1507 43.7735C36.033 43.8793 35.9119 43.9494 35.7882 43.9843L35.6751 43.8008C35.7446 43.7826 35.8027 43.7608 35.8495 43.735C35.7664 43.7228 35.6938 43.6851 35.632 43.6218C35.5534 43.5433 35.5143 43.4483 35.5143 43.3362C35.5143 43.2245 35.5531 43.1289 35.6308 43.0498C35.7086 42.9704 35.8027 42.931 35.913 42.931C36.0233 42.931 36.1178 42.9707 36.1963 43.0498C36.2749 43.1292 36.314 43.2245 36.314 43.3362C36.3228 43.522 36.2684 43.6678 36.1507 43.7735Z" fill="white"/>
<path d="M37.5054 43.7009V40.5249H38.2235V43.7009H37.5054Z" fill="white"/>
<path d="M38.4048 43.6943V40.5182H39.1319L40.4572 42.6387V40.5182H41.1685V43.6943H40.405L39.1024 41.6214V43.6943H38.4048Z" fill="white"/>
<path d="M42.6639 40.5182H43.5564V41.2023H42.8701C42.6466 41.2173 42.4554 41.3149 42.2969 41.4944C42.0643 41.8086 42.028 42.1597 42.1883 42.5477C42.3772 42.9042 42.6798 43.059 43.0967 43.0122H43.5813L43.5564 42.9986V43.6894H42.8633C42.454 43.7107 42.093 43.5505 41.7805 43.2093C41.4935 42.865 41.3644 42.4345 41.3931 41.9181C41.4625 41.2913 41.7751 40.8503 42.3309 40.5951L42.4486 40.5588L42.4758 40.5497H42.4895L42.5439 40.5338C42.5635 40.5338 42.5839 40.5307 42.6052 40.5247C42.6185 40.531 42.6381 40.5287 42.6639 40.5182Z" fill="white"/>
<path d="M6.23755 38.3321V32.2616H7.82685C8.56222 32.2616 9.04123 32.292 9.26414 32.3526C9.60559 32.4425 9.89231 32.6399 10.124 32.9454C10.3557 33.2508 10.4714 33.6453 10.4714 34.1286C10.4714 34.5599 10.4048 34.9022 10.2718 35.1555C10.1385 35.4087 9.96917 35.6078 9.76356 35.7525C9.55795 35.8974 9.3495 35.9941 9.13822 36.0434C8.84866 36.1013 8.43035 36.1302 7.88328 36.1302H7.57076V38.3318H6.23755V38.3321ZM7.57926 33.5165V34.9669H7.72248C8.17114 34.9669 8.47091 34.9402 8.62121 34.8866C8.77181 34.833 8.88978 34.7491 8.97515 34.6348C9.06051 34.5205 9.10334 34.3881 9.10334 34.2375C9.10334 34.0494 9.04321 33.8952 8.92325 33.7749C8.803 33.6549 8.65042 33.5789 8.46523 33.5469C8.33194 33.5268 8.05997 33.5165 7.64875 33.5165H7.57926Z" fill="white"/>
<path d="M10.7275 35.3055C10.7275 34.6802 10.8217 34.1578 11.0097 33.738C11.1487 33.4255 11.3398 33.1453 11.5829 32.8977C11.8259 32.6501 12.0922 32.4672 12.3818 32.3484C12.7697 32.1862 13.2156 32.1053 13.7192 32.1053C14.631 32.1053 15.3599 32.3855 15.9055 32.9457C16.4512 33.5058 16.724 34.2823 16.724 35.2752C16.724 36.2624 16.4534 37.0338 15.9121 37.5896C15.3707 38.1455 14.6455 38.4234 13.7365 38.4234C12.8131 38.4234 12.0806 38.1469 11.5392 37.5942C10.9981 37.0409 10.7275 36.2783 10.7275 35.3055ZM12.0996 35.3271C12.0996 35.9669 12.2502 36.4538 12.5511 36.7882C12.8523 37.1225 13.2343 37.2896 13.6974 37.2896C14.1634 37.2896 14.5448 37.124 14.8415 36.7924C15.1381 36.4609 15.2864 35.9666 15.2864 35.3095C15.2864 34.658 15.1415 34.1717 14.8522 33.8503C14.5627 33.529 14.1775 33.3682 13.6971 33.3682C13.2164 33.3682 12.8302 33.5304 12.5378 33.8546C12.2457 34.1793 12.0996 34.67 12.0996 35.3271Z" fill="white"/>
<path d="M17.0714 32.2616H19.9548C20.4063 32.2559 20.7747 32.3884 21.06 32.6589C21.345 32.9298 21.4848 33.3118 21.4791 33.8052C21.4732 34.2987 21.2707 34.7454 20.8711 35.145C20.4715 35.5446 20.3226 35.8109 20.4239 35.9439L21.8135 38.3451L20.1462 38.3363L18.9304 36.1781L18.8521 35.9436L18.8391 35.9263L18.8303 35.6526L18.8521 35.5355C18.8694 35.4776 18.9012 35.4124 18.9477 35.3401L20.0464 34.12C20.1533 34.0043 20.178 33.8892 20.1201 33.7749C20.0623 33.6606 19.9579 33.6062 19.8076 33.6121H18.444L18.4352 38.3321H17.0762L17.0714 32.2616Z" fill="white"/>
<path d="M23.4417 38.3451V33.5772H22.1606V32.2616H26.0687V33.5772H24.8571V38.3451H23.4417Z" fill="white"/>
<path d="M26.416 32.2616H29.2994C29.7509 32.2559 30.1193 32.3884 30.4046 32.6589C30.6896 32.9298 30.8294 33.3118 30.8237 33.8052C30.8178 34.2987 30.6153 34.7454 30.2157 35.145C29.8161 35.5446 29.6672 35.8109 29.7685 35.9439L31.1581 38.3451L29.4908 38.3363L28.275 36.1781L28.1967 35.9436L28.1837 35.9263L28.1749 35.6526L28.1967 35.5355C28.214 35.4776 28.2458 35.4124 28.2923 35.3401L29.391 34.12C29.4982 34.0043 29.5226 33.8892 29.4647 33.7749C29.4069 33.6606 29.3025 33.6062 29.1522 33.6121H27.7886L27.7799 38.3321H26.4208L26.416 32.2616Z" fill="white"/>
<path d="M37.2544 38.3406H35.9084L35.4263 37.0074H33.3464L32.86 38.3406H31.5052L33.5069 32.8997C33.6198 32.6768 33.748 32.5154 33.8912 32.4156C34.0344 32.3158 34.1986 32.2659 34.3841 32.2659C34.5721 32.2659 34.738 32.3186 34.8812 32.4244C35.0245 32.5302 35.1526 32.6887 35.2655 32.9L37.2544 38.3406ZM35.0398 35.9697L34.3929 34.1762L33.7329 35.9697H35.0398Z" fill="white"/>
<path d="M37.6018 38.3624V32.2747H38.9784V38.3624H37.6018Z" fill="white"/>
<path d="M40.6066 38.3451V33.5772H39.3256V32.2616H43.2336V33.5772H42.022V38.3451H40.6066Z" fill="white"/>
<path d="M33.0877 20.3787C32.7003 19.8705 33.2701 18.8527 34.7964 17.3266C36.3227 15.8006 37.0964 14.0944 37.1188 12.2087C37.1412 10.3231 36.6072 8.86339 35.5179 7.82938C34.4286 6.79509 33.0213 6.28943 31.2962 6.31126H20.2811V6.51687C20.928 6.96411 21.5111 7.52933 22.027 8.20969C23.0672 9.58147 23.5944 11.3429 23.5944 13.4447C23.5944 15.304 23.3006 16.7671 22.6957 17.9182C22.1013 19.0489 21.3251 19.9564 20.3889 20.6158C20.3566 20.6388 20.3237 20.6615 20.2913 20.6833L20.2979 29.503H25.4903L25.5235 11.4705H30.7324C31.3073 11.4487 31.7054 11.656 31.9266 12.0928C32.1478 12.5298 32.054 12.9691 31.645 13.4118L27.448 18.0733C27.2708 18.3498 27.1491 18.5988 27.083 18.8198L26.9999 19.2679L27.0334 20.3129L27.083 20.379L27.3816 21.2749L32.0268 29.5195L38.397 29.5529L33.0877 20.3787Z" fill="white"/>
<path d="M6 29.1915V6H12.0716C14.8807 6 16.7108 6.11599 17.5627 6.34826C18.8675 6.69113 19.9625 7.44608 20.8474 8.61282C21.7322 9.77983 22.1746 11.2866 22.1746 13.1334C22.1746 14.7814 21.9202 16.0891 21.4114 17.0568C20.9027 18.0247 20.2555 18.7847 19.4705 19.3378C18.6852 19.8908 17.8888 20.2612 17.0817 20.4492C15.9757 20.6704 14.3776 20.781 12.2874 20.781H11.0929V29.1918H6V29.1915ZM11.1261 10.7943V16.335H11.6734C13.3875 16.335 14.5321 16.2329 15.1073 16.0281C15.6821 15.8237 16.1331 15.5029 16.4592 15.0659C16.7853 14.6291 16.9487 14.1232 16.9487 13.548C16.9487 12.8294 16.719 12.2404 16.2604 11.7812C15.8012 11.3223 15.2179 11.0322 14.5103 10.9103C14.0015 10.8331 12.9618 10.794 11.3915 10.794H11.1261V10.7943Z" fill="white"/>
</svg>
