<svg width="50" height="50" viewBox="0 0 50 50" fill="none" xmlns="http://www.w3.org/2000/svg">
<path d="M44.7656 18.0385V32.6315C44.7656 35.021 43.4855 37.24 41.416 38.4561L28.7431 45.7739C26.6736 46.9687 24.1134 46.9687 22.0226 45.7739L9.34959 38.4561C7.2801 37.2613 6 35.0424 6 32.6315V18.0385C6 15.649 7.2801 13.43 9.34959 12.2139L22.0226 4.89607C24.0921 3.70131 26.6522 3.70131 28.7431 4.89607L41.416 12.2139C43.4855 13.43 44.7656 15.6276 44.7656 18.0385Z" stroke="white" stroke-width="3.20024" stroke-linecap="round" stroke-linejoin="round"/>
<path d="M25.3934 23.2015C28.1388 23.2015 30.3645 20.9758 30.3645 18.2304C30.3645 15.485 28.1388 13.2595 25.3934 13.2595C22.648 13.2595 20.4224 15.485 20.4224 18.2304C20.4224 20.9758 22.648 23.2015 25.3934 23.2015Z" stroke="white" stroke-width="3.20024" stroke-linecap="round" stroke-linejoin="round"/>
<path d="M33.9275 35.2769C33.9275 31.4366 30.1085 28.3218 25.3935 28.3218C20.6785 28.3218 16.8595 31.4366 16.8595 35.2769" stroke="white" stroke-width="3.20024" stroke-linecap="round" stroke-linejoin="round"/>
</svg>
